<svg width="111" height="111" viewBox="0 0 111 111" fill="none" xmlns="http://www.w3.org/2000/svg">
<path d="M62.4375 78.625V87.875L55.5 101.75L48.5625 87.875L62.4375 78.625ZM67.0625 29.1375L62.4375 32.375V27.75H48.5625V41.625L43.9375 44.8625V49.4875L67.0625 34.225V29.1375ZM67.0625 47.6375L62.4375 50.875V41.625L48.5625 50.875V60.125L43.9375 63.3625V67.9875L67.0625 52.725V47.6375ZM67.0625 66.1375L62.4375 69.375V60.125L48.5625 69.375V78.625L43.9375 81.8625V86.4875L67.0625 71.225V66.1375ZM37 9.25C37 9.25 32.375 9.25 32.375 13.875L46.25 23.125H64.75L78.625 13.875C78.625 13.875 78.625 9.25 74 9.25L37 9.25Z" fill="#FEFFFE"/>
</svg>
