<svg width="1590" height="1430" viewBox="0 0 1590 1430" fill="none" xmlns="http://www.w3.org/2000/svg">
<path opacity="0.1" d="M218.587 1414.72L218.053 1415.5H219H415H415.264L415.413 1415.28L1371.41 15.2819L1371.95 14.4999H1371H1175H1174.74L1174.59 14.718L218.587 1414.72ZM460.594 566.708L460.592 566.711C431.358 607.904 390.181 628.5 337 628.5C283.826 628.5 241.308 607.242 209.403 564.704C178.822 522.154 163.5 462.273 163.5 385C163.5 307.727 178.822 247.846 209.403 205.296C241.308 162.758 283.826 141.5 337 141.5C390.175 141.5 431.351 162.757 460.588 205.283L460.593 205.291L460.598 205.298C491.175 246.51 506.5 306.387 506.5 385C506.5 463.611 491.176 524.159 460.594 566.708ZM160.733 721.423C211.487 753.478 269.581 769.5 335 769.5C403.081 769.5 461.845 753.48 511.271 721.42C562.019 689.367 601.412 644.629 629.449 587.219C657.489 529.805 671.5 462.393 671.5 385C671.5 307.607 657.489 240.195 629.449 182.781C601.412 125.37 562.018 80.6314 511.269 48.5787C461.844 16.5195 403.08 0.5 335 0.5C269.581 0.5 211.487 16.5223 160.733 48.5772C109.983 80.63 70.5887 125.369 42.5507 182.781C14.511 240.195 0.5 307.607 0.5 385C0.5 462.393 14.511 529.805 42.5507 587.219C70.5887 644.63 109.983 689.37 160.733 721.423ZM1078.73 1381.42C1129.49 1413.48 1187.58 1429.5 1253 1429.5C1321.08 1429.5 1379.84 1413.48 1429.27 1381.42C1480.02 1349.37 1519.41 1304.63 1547.45 1247.22C1575.49 1189.8 1589.5 1122.39 1589.5 1045C1589.5 967.606 1575.49 900.195 1547.45 842.781C1519.41 785.371 1480.02 740.633 1429.27 708.581C1379.85 676.52 1321.08 660.5 1253 660.5C1187.58 660.5 1129.49 676.522 1078.73 708.577C1027.98 740.63 988.589 785.369 960.551 842.781C932.511 900.195 918.5 967.606 918.5 1045C918.5 1122.39 932.511 1189.8 960.551 1247.22C988.589 1304.63 1027.98 1349.37 1078.73 1381.42ZM1378.59 1224.71C1348.02 1267.24 1306.18 1288.5 1253 1288.5C1201.16 1288.5 1159.31 1267.91 1127.4 1226.7C1096.82 1184.15 1081.5 1123.61 1081.5 1045C1081.5 966.388 1096.82 906.512 1127.4 865.3C1159.31 822.755 1201.16 801.5 1253 801.5C1306.18 801.5 1348.02 822.758 1378.59 865.292C1409.18 907.842 1424.5 967.724 1424.5 1045C1424.5 1122.28 1409.18 1182.16 1378.59 1224.71Z" fill="#D74558" stroke="black"/>
</svg>
